<?xml version="1.0" encoding="utf-8"?>
<!-- Generator: Adobe Illustrator 18.0.0, SVG Export Plug-In . SVG Version: 6.00 Build 0)  -->
<!DOCTYPE svg PUBLIC "-//W3C//DTD SVG 1.1//EN" "http://www.w3.org/Graphics/SVG/1.1/DTD/svg11.dtd">
<svg version="1.1" id="Layer_1" xmlns="http://www.w3.org/2000/svg" xmlns:xlink="http://www.w3.org/1999/xlink" x="0px" y="0px"
	 width="102px" height="102px" viewBox="0 0 102 102" enable-background="new 0 0 102 102" xml:space="preserve">
<g>
	<path d="M51.2,0C23.1,0,0.3,22.8,0.3,50.9c0,28.1,22.8,50.9,50.9,50.9c28.1,0,50.9-22.8,50.9-50.9
		C102.1,22.8,79.3,0,51.2,0z M51.2,95.6c-24.7,0-44.7-20-44.7-44.7c0-24.7,20-44.7,44.7-44.7c24.7,0,44.7,20,44.7,44.7
		C95.9,75.6,75.9,95.6,51.2,95.6z"/>
</g>
<path d="M66,20.6H36.4c-1.2,0-2.2,1.1-2.2,2.5v55.7c0,1.4,1,2.5,2.2,2.5H66c1.2,0,2.2-1.1,2.2-2.5V23.1
	C68.3,21.7,67.2,20.6,66,20.6z M46.8,23.5H56c0.4,0,0.8,0.3,0.8,0.7c0,0.4-0.4,0.7-0.8,0.7h-9.1c-0.5,0-0.8-0.3-0.8-0.7
	C46,23.8,46.4,23.5,46.8,23.5z M44.5,76.6c0,0-6-1.2-6.4-4.6h6.4V76.6z M57.2,77.3c0,0-2.1,1-5.6,1c-3,0-5.8-1.1-5.8-1.1v-5.2h11.4
	V77.3z M58.5,76.6V72h6.4C64.5,75.4,58.5,76.6,58.5,76.6z M65.4,67.5c0,1-0.9,1.8-2,1.8H39.4c-1.1,0-2-0.8-2-1.8V28.4
	c0-1,0.9-1.8,2-1.8h23.9c1.1,0,2,0.8,2,1.8V67.5z"/>
</svg>
