<?xml version="1.0" encoding="utf-8"?>
<!-- Generator: Adobe Illustrator 18.0.0, SVG Export Plug-In . SVG Version: 6.00 Build 0)  -->
<!DOCTYPE svg PUBLIC "-//W3C//DTD SVG 1.1//EN" "http://www.w3.org/Graphics/SVG/1.1/DTD/svg11.dtd">
<svg version="1.1" id="Layer_1" xmlns="http://www.w3.org/2000/svg" xmlns:xlink="http://www.w3.org/1999/xlink" x="0px" y="0px"
	 width="102px" height="102px" viewBox="0 0 102 102" enable-background="new 0 0 102 102" xml:space="preserve">
<g>
	<path d="M50.9,0.1C22.8,0.1,0,22.9,0,51c0,28.1,22.8,50.9,50.9,50.9c28.1,0,50.9-22.8,50.9-50.9
		C101.8,22.9,79,0.1,50.9,0.1z M50.9,95.7c-24.7,0-44.6-20-44.6-44.7c0-24.7,20-44.6,44.6-44.6c24.7,0,44.6,20,44.6,44.6
		C95.6,75.7,75.6,95.7,50.9,95.7z"/>
	<path d="M70.9,79.4c1.6-1.3,3-3.2,3-4.5c0-1.5-11.3-11.5-12.6-12.3c-1.2-0.7-2-0.5-3.2,1.2c-1.4,2-2.5,3-4.5,2.9
		c-4.9-0.4-13-16.2-14.5-20c-1.2-2.9-0.8-4.6,0.4-5.7c1.2-1.1,5.4-2.1,6.3-3.1c0.9-1-0.4-5.6-2.4-12.8c-1.7-5.9-3.5-5.4-3.5-5.4
		c-5,0.6-10.3,6.4-11.4,10.3c-1.1,3.9-0.1,8.5,4.4,18c4.8,10,15.7,27.2,23.8,32.5c4.5,3,10.2,1.3,12.9-0.1"/>
</g>
</svg>
