<?xml version="1.0" encoding="utf-8"?>
<!-- Generator: Adobe Illustrator 18.0.0, SVG Export Plug-In . SVG Version: 6.00 Build 0)  -->
<!DOCTYPE svg PUBLIC "-//W3C//DTD SVG 1.1//EN" "http://www.w3.org/Graphics/SVG/1.1/DTD/svg11.dtd">
<svg version="1.1" id="Layer_1" xmlns="http://www.w3.org/2000/svg" xmlns:xlink="http://www.w3.org/1999/xlink" x="0px" y="0px"
	 width="102px" height="102px" viewBox="0 0 102 102" enable-background="new 0 0 102 102" xml:space="preserve">
<g>
	<path d="M51,0.1C22.9,0.1,0.1,22.9,0.1,51c0,28.1,22.8,50.9,50.9,50.9c28.1,0,50.9-22.8,50.9-50.9
		C101.9,22.9,79.1,0.1,51,0.1z M51,95.6c-24.6,0-44.6-20-44.6-44.6c0-24.6,20-44.6,44.6-44.6c24.6,0,44.6,20,44.6,44.6
		C95.6,75.7,75.7,95.6,51,95.6z"/>
	<path d="M51,22.7c-15.6,0-28.3,12.7-28.3,28.3c0,15.6,12.7,28.3,28.3,28.3c15.6,0,28.3-12.7,28.3-28.3
		C79.3,35.4,66.6,22.7,51,22.7 M74.4,43.3c-2.4,2.8-5.2,5.4-8.2,7.6c-2.6-9.3-7.5-17.7-14-24.5C62.6,26.9,71.3,33.9,74.4,43.3
		 M66.5,70.1c-3.9,3.2-8.8,5.2-14.2,5.5c-4-4-7.4-8.5-10-13.5c8.4-1,16.2-4,22.9-8.5c0.9,4,1.4,8.2,1.4,12.5
		C66.7,67.4,66.6,68.8,66.5,70.1 M36.2,31.4c3.9-2.9,8.6-4.7,13.8-4.9c7,6.9,12.3,15.7,14.9,25.5c-6.8,4.7-14.7,7.7-23.3,8.7
		C38,53.2,36,45,36,36.3C36,34.6,36.1,33,36.2,31.4 M34.5,32.8c-0.1,1.2-0.1,2.3-0.1,3.5c0,8.7,2,17,5.5,24.4
		c-1.2,0.1-2.4,0.1-3.6,0.1c-2.8,0-5.5-0.2-8.1-0.7c-1.1-2.8-1.8-5.9-1.8-9.2C26.4,43.8,29.5,37.3,34.5,32.8 M28.9,61.9
		c2.4,0.3,4.8,0.5,7.3,0.5c1.5,0,2.9-0.1,4.4-0.2c2.5,4.9,5.7,9.4,9.5,13.4C40.9,75.3,32.8,69.8,28.9,61.9 M68.2,68.6
		c0-0.9,0.1-1.7,0.1-2.6c0-4.6-0.6-9.1-1.6-13.5c3-2.2,5.8-4.7,8.3-7.4c0.5,1.9,0.7,3.9,0.7,5.9C75.6,57.9,72.8,64.2,68.2,68.6"/>
</g>
</svg>
