<?xml version="1.0" encoding="utf-8"?>
<!-- Generator: Adobe Illustrator 18.0.0, SVG Export Plug-In . SVG Version: 6.00 Build 0)  -->
<!DOCTYPE svg PUBLIC "-//W3C//DTD SVG 1.1//EN" "http://www.w3.org/Graphics/SVG/1.1/DTD/svg11.dtd">
<svg version="1.1" id="Layer_1" xmlns="http://www.w3.org/2000/svg" xmlns:xlink="http://www.w3.org/1999/xlink" x="0px" y="0px"
	 width="102px" height="102px" viewBox="0 0 102 102" enable-background="new 0 0 102 102" xml:space="preserve">
<g>
	<path d="M51,0.2C23,0.2,0.2,23,0.2,51c0,28.1,22.7,50.8,50.8,50.8c28.1,0,50.8-22.7,50.8-50.8
		C101.8,23,79.1,0.2,51,0.2z M51,95.6C26.4,95.6,6.5,75.6,6.5,51C6.5,26.4,26.4,6.5,51,6.5c24.6,0,44.5,19.9,44.5,44.6
		C95.6,75.6,75.6,95.6,51,95.6z"/>
	<path d="M80.8,28.8c0,0-53.9,0-58.4,0c-4.5,0-4.7,3.5-4.7,3.5s0,26.9,0,31.5c0,4.5,3.6,4.6,3.6,4.6h18.4l0,1.9H29.6
		c-0.8,0-1.5,0.7-1.5,1.5c0,0.8,0.7,1.5,1.5,1.5h42.9c0.8,0,1.5-0.7,1.5-1.5c0-0.8-0.7-1.5-1.5-1.5H61.9v-1.9c0,0,14.7,0,18.6,0
		c3.9,0,3.9-2.9,3.9-2.9s0-28.1,0-32.4C84.4,28.9,80.8,28.8,80.8,28.8z M80.5,62c0,1.2-1,2.1-2.1,2.1H24c-1.2,0-2.1-0.9-2.1-2.1
		V34.5c0-1.2,0.9-2.1,2.1-2.1h54.4c1.2,0,2.1,0.9,2.1,2.1V62L80.5,62z"/>
</g>
</svg>
